<svg xmlns="http://www.w3.org/2000/svg" fill="none" viewBox="0 0 368 128" preserveAspectRatio="none"><path fill="#FFE028" d="M97.928 67.065c-6.922-3.987-53.458 5.454-57.03 4.466-3-1.563-2.33-34.066-.288-39.041.734-1.787 1.754-2.201 4.274-1.595 3.636.861 49.854-5.805 53.682-6.38.765.926 2.392-2.583 2.87-1.403 1.276 2.36 70.81-6.347 89.055-8.23 4.178-.446 1.021 1.755 5.901.639 10.366-2.36 33.459-2.297 41.274-4.593 6.283-1.85 7.623-1.914 13.874-1.212 6.348.733 39.52-2.775 43.188-5.168.893-.67 1.627-.478 1.659.224h1.02c.638 0 7.815-.128 10.781-.16 5.901-.095 11.802-.095 11.898.192.223.701.956 1.02 1.594.478 1.181-.83 25.996-4.657 26.538-2.583 1.563 5.932-.287 31.417-2.711 37.765-2.584 6.698-19.234.064-31.992 4.689l-60.603 3.731-12.79 3.286c-1.659-2.042-6.89 3.636-10.718.095-1.563-1.435-11.897-.925-14.066.798-.925.733-14.672 1.148-28.802 2.073-14.13.925-28.643 2.36-31.131 4.689-9.984-2.903-48.546 5.518-57.51 7.208l.033.032z" opacity=".7"/><path fill="#FFE028" d="M70.21 111.465c-4.178-1.244-19.106 2.775-33.49 7.145-14.354 4.37-28.165 9.154-30.27 8.995-3.637-.925-7.688-33.268-6.093-38.659.574-1.913 1.659-2.551 4.593-2.487 2.36.063 17.288-4.275 31.642-8.676a13125.54 13125.54 0 0028.164-8.676c1.02.765 2.328-3.062 3.062-1.978 1.627 1.914 66.791-17 99.708-25.74 4.689-1.244 1.435 1.531 6.794-.479 11.451-4.305 37.637-8.643 46.186-12.375 6.857-2.998 8.388-3.317 15.565-3.796 7.304-.446 44.495-10.047 48.355-13.077.925-.83 1.754-.766 1.914-.064 0 0 .414-.032 1.148-.16.733-.127 8.867-1.53 12.216-2.105 6.698-1.148 13.428-2.2 13.556-1.945.351.67 1.244.829 1.882.19 1.212-1.052 28.93-9.249 29.823-7.271 2.584 5.581 3.891 31.194 1.978 37.924-2.01 7.081-21.818 3.445-35.661 10.335l-68.226 14.768-14.034 5.645c-2.169-1.722-7.304 4.88-12.121 2.106-1.977-1.149-13.619 1.34-15.82 3.444-.957.893-16.459 3.924-32.311 7.592-15.853 3.636-32.088 7.91-34.576 10.717-11.738-.925-54.128 15.087-63.984 18.595v.032z" opacity=".7"/><path fill="#FFE028" d="M71.55 122.533c-3.924-2.073-19.617-1.148-34.863.223-15.215 1.372-29.983 3.158-32.056 2.584-3.413-1.627-.574-34.13 2.137-39.073.957-1.754 2.201-2.17 5.104-1.5 2.328.543 18.053-.637 33.236-2.009 15.182-1.371 29.79-2.775 29.79-2.775.83.957 2.935-2.52 3.446-1.308 1.307 2.329 78.464-3.827 104.428-5.39 4.912-.287 1.116 1.786 6.858.861 12.248-2.01 39.2-1.18 48.45-3.19 7.432-1.626 9.027-1.658 16.267-.701 7.368.957 46.314-1.372 50.715-3.636 1.085-.638 1.914-.415 1.946.287.542.032 27.527.382 27.654.925.223.701 1.085 1.052 1.85.542 1.404-.797 30.621-3.7 31.131-1.595 1.499 5.965-2.009 31.386-5.199 37.638-3.381 6.602-22.455-.67-37.638 3.477l-71.033 1.562-15.119 2.839c-1.818-2.105-8.261 3.381-12.535-.255-1.754-1.499-13.843-1.34-16.49.319-1.117.702-17.192.67-33.779 1.116-16.554.479-33.586 1.436-36.648 3.7-11.515-3.221-57.063 3.987-67.62 5.423l-.032-.064z" opacity=".7"/></svg>